<?xml version="1.0" encoding="utf-8"?>
<!-- Generator: Adobe Illustrator 22.1.0, SVG Export Plug-In . SVG Version: 6.00 Build 0)  -->
<svg version="1.1" id="Layer_1" xmlns="http://www.w3.org/2000/svg" xmlns:xlink="http://www.w3.org/1999/xlink" x="0px" y="0px"
	 viewBox="0 0 864 864" style="enable-background:new 0 0 864 864;" xml:space="preserve">
<style type="text/css">
	.st0{fill:#FEFEFE;}
</style>
<g id="Layer_1_1_">
</g>
<g>
	<path d="M516.1,411.9c0.7-0.4,1.7-0.1,2.2-1.3c-0.9-0.3-2.6,0-1.8-1.8c0,0,0.3-1-0.4-1c-0.3,0-0.9,0.2-0.9,0.5
		c-0.3,1.5-1.2,1.4-2.5,1.3c-1.5-0.2-1.8,0.4-1.7,2.3c0.1,1-1.2,1-1.5,1.8c1,0.9,1.8-0.6,2.8-0.2c-0.8,1.7-2.4,1-3.6,1.2
		c-5.3,1-9.1,4.6-13.6,7.1c-9.2,5.2-17.9,11.5-28.4,13.9c-4.9,1.1-9.4,3.1-13.9,5.1c-0.6,0.3-1.2,0.5-1.5-0.3
		c-0.4-0.9,0.4-0.7,0.9-0.9c6.9-2.5,13.6-5.5,20.1-9c8.5-4.5,16.6-9.7,24.1-15.8c5.9-4.8,11.7-9.7,17.2-15c2.3-2.2,4.1-4.8,6.4-7.9
		c-2.7,1-4.8,1.2-7.2,1c-2.9-0.2-4.6-1.9-6.6-3.5c-1.9-1.5-3.3-3.7-5-5.2s-2.1-4.1-4.3-4.8c-1.3-0.4-1.1-1-1.1-1.7
		c0.2-1.9-0.1-3.3-2.5-3.5c-0.8-0.1-1.7-0.6-1.5-1.9c0.2-1.1-0.3-2.8-0.1-3.3c0.8-2-0.8-1.9-1.7-2.4c-2.1-1.3-4.8-2-4.4-5.5
		c0.2-1.4-1.6-1.6-2.5-2.3c-1.7-1.2-3.4-2.2-3-4.7c0.2-1.1-0.9-1.6-1.5-2.2c-2.2-2.3-4.8-4.3-3.6-8.1c0.2-0.6-0.5-1.6-1.1-2.1
		c-1.6-1.6-2.1-3.4-1.8-5.6c0.2-1.7-0.5-3.1-1.4-4.6c-1.4-2.2-1.8-4.6-0.6-7c1.3-2.4-1-4.2-0.8-6.5c0.1-0.7-0.2-1.6-0.3-2.4
		c-0.2-2.1,0.7-2.6,2.9-1.5c-1.4-2.6-1.8-5.1-2.1-7.5c-0.3-2-0.4-1.9,1.6-2.9c0.7-0.3,0.4-0.9,0.1-1.5c-1.2-2.2-1.7-4.5-1.2-7.1
		c1.3-0.3,1.5,1.2,2.4,1.4c1-0.4,0.5-1.5,1.2-2.2c2.2,1.4,3.3,3.9,4.8,5.8c5.5,6.9,11.1,13.8,16.8,20.6c5.5,6.7,11.8,12.7,18.1,18.6
		c3.6,3.3,7.4,6.3,11.1,9.5c1.2,1,2.1,1.2,3-0.6c0.8-1.7,2-3.3,1.6-5.3c0-0.3,0-0.6,0.2-0.8c2.1-3.2,3.4-6.8,4.3-10.5
		c0.2-0.9,0.5-1.9,2-1.5c1.2,0.3,0.8-0.7,0.8-1.2c0.2-2.1,0.4-4.2,1.9-5.8c0.6-0.7,1.4-2.3,2.6-0.4c0-1.1-0.2-2.2,0.1-3.3
		c0.2-1,0.2-2.3,1.2-2.9c1.3-0.7,1.4,1.3,2.5,1.2c0.2-0.6,0.1-1.7,1-1.9c1-0.2,1.2,0.9,1.6,1.6c6.2,9.1,9.1,19.5,11.4,30.2
		c0.4,2,0.4,4,0.6,6c0.1,0.6-0.2,1.3,0.1,1.6c3.6,3.9,1,7.3-1.2,11c3.3-0.7,6.5-0.7,9.6-0.7c3.8,0.1,7.5,0.4,10.3,3.5
		c0.7,0.8,1.9,1,3.1,1c1.1-0.1,1.9,0.4,3,1.2c-3.9,0.9-5.6,4.4-8.4,6.5c-2.1,1.6-4.7,2.5-7,3.9c-6.3,3.8-13.1,6.9-18.2,12.4
		c-1.8,2-4.4,1.1-6.6,2.1c-1.1,0.5-1.6,2.2-3.2,1.6c-0.2-0.3-0.3-0.6-0.5-0.9c-0.1-1.3-1.1-1.2-1.8-0.9c-2.2,1.1-3.8,3-5.8,4.4
		c-0.7,0.4-1,1.8-2.2,1.2c0.6-0.3,0.5-0.9,0.2-1.1c-0.4-0.3-0.5,0.3-0.7,0.5c-1.8,0.3-2.4,2.9-4.7,2.4c-0.1,0-1,1.8-0.9,2.7
		c0.1,1.3,1.1,0.7,1.9,0.4c1.1-0.4,0.4,1,1.1,1.1c1,0.3,1.5,1.6,3.1,1.1c-0.6,0.6-0.8,1.1-1,1.1c-4.7-0.6-8.5,2.7-13,3.1
		C516.5,412.3,516.3,412,516.1,411.9L516.1,411.9z M520.3,391.6c0.2-0.2,0.4-0.3,0.5-0.5c-0.1-0.1-0.3-0.3-0.4-0.3
		c-0.2,0.1-0.3,0.3-0.5,0.4C520,391.4,520.2,391.5,520.3,391.6z"/>
	<path d="M684.1,406.5c-0.4,2.1-1.6,2.8-3.5,1.7c-1.1-0.6-2.3-0.9-3.4-1.6c-2-1.3-3.4-3.7-6.8-2.7c-2.2,0.6-4.2-2.2-5.9-4
		c-0.6-0.6-1-1.2-2-0.8c-0.6,0.3-1.3-0.1-1.8-0.5c-1-1-2.9-1.6-3.3-2.6c-2-4.3-7.6-6.5-7.4-12.1c0-0.5,0-0.9-0.7-1
		c-2.3-0.3-2.5-2.5-2.6-4c-0.4-4.8-4-7.7-6.3-11.4c-0.8-1.3-1.3-2.9-2.7-4c-0.7-0.6-0.4-2.5-2.3-1.6c-0.1,0.1-0.6-0.6-0.7-1.1
		c-0.4-1.6-0.5-3.2-2.6-4.1c-2.3-1.1-1.9-3.7,0.8-7.1c0.3-0.3,0.6-0.5,0.8-0.8c-0.5-0.1-1-0.3-1.3,0.4c-3.3,1.1-2.9,4.4-3.8,6.8
		c-4.6,12.3-10.7,23.8-18.3,34.4c-2.1,2.9-4.3,5.9-7.4,8c-0.2-0.1-0.3-0.2-0.5-0.4c4.5-5.5,9.7-10.7,11.8-17.7
		c1.9-6.3,3.5-12.8,4-19.5c0-0.5-0.2-1.4-0.5-1.4c-3-0.5-0.3-1.9-0.7-3c-3,1.1-6.1,2.6-9.7,2.2c-1.5-0.2-3.1-0.3-4.6-0.6
		c-0.7-0.1-1.5-0.7-1.4-1.4c0.3-1.3,1.2-0.3,1.7-0.2c7.1,1.8,12.9-0.6,17.4-5.9c1.6-1.9,1.4-4.9,2-7.4c1.3-6.1,4.8-10.7,9.4-14.6
		c3.7-3.1,7.9-6,10.3-9.8c1.5-2.4,4.1-2.9,5.3-5.1c1.3-2.3,4.2-3.3,5.9-5c4.8-5,10.7-8.4,15.9-12.7c4.7-3.9,9.9-7.4,14.9-10.9
		c2.9-2,5-4.8,7.6-7.1c3.5-3,6.9-5.9,10.4-8.9c0.4-0.3,0.9-0.5,1.4-0.7c0.2,3,3.3,0,4,1.9c0.6,1.7-0.2,3.5-0.6,5.1
		c-3.2,11.4-10.5,19.1-21.3,23.9c-5.1,2.3-10.5,3.6-15.7,5.4c-1.7,0.6-2.9,1.7-4.2,3.4c2.8-0.5,5.2-1,7.7-1.5c3.1-0.6,6-0.2,8.4,2
		c1.5,1.3,3.2,2.1,5.1,2.2c0.5,0,1.3-0.3,1.2,0.6c-0.1,1-1.1-0.1-1.5,0.5c0.2,1.3,1.9-0.2,2.1,1.4c-3.2-0.3-4.4,2.2-6.1,4.2
		c-1.8,2.2-4.9,2.7-7.1,4.5c-3.4,2.7-6.9,5.4-10.4,8c-0.6,0.4-1.2,0.4-0.4,1.4c3.1,3.9,5.7,8,9.8,11c2.9,2.1,5.9,4.7,6.2,8.7
		c0.6,6.8,6,10.6,9.3,15.7c3.1,4.7,7.6,8.4,10.6,13.4c1.5,2.5,4.3,4.7,6.5,7c4.6,4.8,9.2,9.6,13.8,14.4c0.2,0.3,0.4,0.5,0.6,0.8
		c-0.2,0.3-0.2,0.5-0.3,0.5c-4,0.5-8.1,0.9-12.2,0.7c-0.9,0-1.2-0.1-1.1,1.2c0.1,2-4.4,3.9-7.3,3.2c-2.5-0.6-4.9-1.4-7-3.3
		c-0.3,1.7,1.7,3.6-0.2,4.7c-1.8,1-3.7-0.2-5.4-0.9c-1.5-0.6-2.8-1.7-4.1-2.6c-0.3-0.2-0.5-0.3-0.8-0.5
		C683.5,406,683.6,406.4,684.1,406.5z"/>
	<path d="M710.9,354.2c-4.3-1.6-8.9-0.7-12.7-3.1c0.2-0.9,1.1-0.3,1.4-0.8c-1.5-1-3.2-1.8-4.4-3.3c1.3-1,1.8,0.4,2.4,0.8
		c2.1,1.1,4.4,0.8,6.6,2c6.9,3.9,14.5,4.4,22.4,3.6c13.4-1.4,26.2-5.4,39-9.1c3.8-1.1,7.3-3.1,10.8-4.8c0.2-0.1,1.1,0.2,0.7-0.9
		c-1.5-4-1.2-8.2-0.6-12.2c0.9-5.9,1.3-11.7,0.9-17.6c-0.2-2.3-1.4-5.4-0.7-6.8c1.6-3.3-1.9-4.9-1.5-7.6c0.5-2.8,0-5.7-1.4-8.2
		c-0.2-0.3-0.2-0.7-0.2-1.1c0.5-5.2-1.1-10.4-0.5-15.5c0.4-3.2-0.4-6.3,0-9.5c0.1-1.1-0.9-2.7,1.4-2.9c0.6-0.1,0.5-1.3,0.2-1.7
		c-1-1.9,0-4.1-1-5.9c-0.3-0.5-0.3-1.5,0-1.9c2.2-3.3,0.7-7.2,1.8-10.4c1.3-3.8,0.8-7.7,1.5-11.4c0.3-1.6,0.9-3.3,3.3-2.1
		c-0.5-3.2,1.2-5.8,1.8-8.6c0.1-0.6,0.3-1.3,1.2-1.3c1.3,0.1,1,1.5,1.8,2c0.4-0.8-0.2-2.2,0.9-2.4c0.5-0.1,1.3,0.9,1.8,1.5
		c5.4,5.3,7.8,12.3,10.2,19.2c1.8,5.3,3.1,10.9,4.1,16.4c1.2,6.3,2.5,12.5,2.7,18.9c0.1,4.9,1.1,9.9,1.1,14.8c0,0.3,0,0.6,0.1,0.8
		c4,4.9,1.7,10.3,0.9,15.5c-0.3,1.6-0.8,3.1,0,4.8c0.3,0.5,0.2,1.3,0.1,1.9c-1.3,4.3,0.3,8.5,0.7,12.7c0.1,0.6,0.2,1.5,1.9,1.3
		c4.9-0.7,10-1.9,15-0.3c0.8,0.3,1.6,0.5,2.1,1.1c1.8,1.8,3.6,3.7,6.1,4.6c0.8,0.3,1.3,0.9,1,1.7c-0.4,1.2-1-0.1-1.5,0
		c-0.6,0.1-1.4,0.3-1.7,0.7c-4.1,5.7-10.5,8-16.3,11.1c-1.4,0.7-2.7,1.4-4.1,2.2c-3.2,1.9-5.7,1.1-7-2.4c-0.1-0.2,0-0.5-0.3-0.5
		c-3.3,0.4-6.7-1.6-9.6,0.9c1.4,0.2,3.1,1.3,2.9,2.8c-0.2,1.4-1.6,2.7-3.4,3c-0.5,0.1-1.2,0-1.2,0.5c0,3.2-3,3.7-4.8,5
		c-1.7,1.2-1.7,3.8-4.4,4.3c-1.3,0.2-2.6-0.4-3.7,0.4c0.2,0.7,0.9,1.6,1.4,1.4c2.3-0.8,4.2,0.7,6.3,0.6c1.7-0.1,2,1.1,2.8,2.5
		c-3.3-2.1-6.3,0.4-9.3-0.7c-0.3-0.1-0.7,0.4-0.9,0.9c-1.6,6-5.5,10.7-8.8,15.7c-3.8,5.9-8.6,11-14.1,15.3c-0.5,0.4-1,1.2-1.9,0.6
		c0.8-1.1,1.8-2,2.4-3.2c0.3-0.5,2.7-1.8-0.2-2.3c-0.6-0.1,0.1-0.9,0.4-1.3c0.6-0.8,1.1-1.6,1.6-2.5c0.2-0.3,2-1.9-0.6-1.1
		c-0.5,0.2-0.6-0.6-0.5-0.7c2.4-1.8,1-4.9,2.5-7.2c1.5-2.4,2.8-5,4.2-7.4c3.9-6.9,7.5-13.9,12.9-19.9c-2.4-1.2-3.8,0.5-5.3,1.1
		c-9.6,4.1-19.3,7.9-29.7,9.5c-7.1,1.1-14.2,0.9-21.3-0.5c-4.4-0.9-8.7-2.7-13.9-2.1C708.4,354.1,709.6,354.8,710.9,354.2z
		 M758.5,387c-0.2-0.2-0.3-0.3-0.4-0.5c-0.1,0.2-0.3,0.4-0.4,0.6c0,0.1,0.2,0.2,0.3,0.3C758.2,387.3,758.3,387.2,758.5,387z"/>
	<path d="M302,496.3c-4.3,2.2-5.7,7.6-10.5,9.4c-2,0.7-3.3,2.8-5,4.2c-1.7,1.4-1.3,2.6,0,3.8c2.1,2.1,4.3,4,6.5,6
		c5.3,4.7,8.9,10.6,12.6,16.7c5.3,8.9,11.6,17.1,19.4,24.1c3.4,3.1,7.2,5,11.9,4.6c2-0.2,3.8,0.8,5.7,0.6c0.6-0.1,1,0.3,1.1,0.7
		c0.1,0.6-0.6,0.7-1,1.1c-3,2.2-6.1,0.8-8.7-0.4c-2.5-1.1-4.9-1.7-7.6-2c-4.9-0.4-10,0.6-14.5-2.1c-1-0.6-0.7,1.2-1.6,1
		c-1-0.2-2-0.4-3-0.6c-2.9-0.6-5-2.9-8.5-2.7c-3.3,0.2-6.2-2.9-8.1-6.6c-0.7,3.7-1,3.9-3.3,2.1c-2-1.6-4.1-3.2-4.5-6
		c-1.5,2.1-2.7,2-4.3,0.1c-1.6-2-2.3-4.3-2.9-6.7c-2.6,1.9-4.7,1.4-4.8-1.5c-0.1-3-2.6-2-3.8-2.5c-1.2-0.6-2.6-0.1-2.6-2.2
		c0-0.8-1.4-2.2-1.9-2.2c-3.2,0.5-3.2-2.4-4.4-3.9c-0.1-0.2,0.1-0.9-0.5-0.7c-2.3,0.6-3.2-1-3.7-2.7c-0.7-2.2-2.8-2.6-4.2-3.9
		c-2.5-2.6-5.8-1.5-8.4,1.5c-2.2,2.6-4.7,5-7,7.5c-5.6,6.1-11.7,11.9-17.3,18.1c-3.8,4.3-8.2,8-11.1,13.5c-1-1.6-0.6-2.5,0.3-3.3
		c4-3.8,6.6-8.8,10.4-12.7c0.6-0.6,0.8-1.3,0.3-2.5c-0.7-1.5,0.9-3,2.1-4.5c-2,0.1-3.2-0.5-2.3-2.5c0.5-1.2,0.7-1.9-1-1.9
		c-0.9,0-1.6-0.6-1.4-1.3c0.9-2.9-1.5-4.2-3-5c-2.6-1.3-1.2-1.9,0.7-3.1c-3.5,0-6.3,0.1-9.1,0c-2.2-0.1,0-1-0.2-1.7
		c-12.2-0.4-23.8,3.6-35.9,4.7c2.6-1.8,5.7-1.8,8.6-2.3c8.2-1.5,16.3-3.3,24.4-5.1c8.7-1.9,17.4-4.1,25.8-7
		c5.2-1.8,9.7-5.3,14.3-8.6c-2.5-0.2-4.9-0.4-7.2-0.7c-3-0.4-4.9-2.4-6.9-4.5c-1.4-1.5-2.5-2.5-1.7-4.6c0.1-0.4-0.3-0.4-0.5-0.4
		c-2.1,0.4-3.7-0.6-5.4-1.7c-0.9-0.6-3.1,0-2-2.4c0.3-0.7-0.9-0.3-1.4-0.6c-1.1-0.7-2.5-1.2-1.1-2.8c0.6-0.6,0.2-0.8-0.1-1.3
		c-0.8-1.1-1.2-2.1,0.3-3c0.1,0,0.2-0.1,0.2-0.1c-1.2-2.8,1-4.3,2.2-6.3c0.7-1.1,1.6-1.6,2.2-2.4c1.5-2,4.9-1.3,5.5-4.4
		c0.1-0.4,0.7-1.1,1.4-0.1c0.7,0.9,0.8,3.3,3.2,2c0.3-0.2,0.9,1.5,1.3,2.5c1.8,5.1,4.3,9.7,8.8,13c2.3,1.7,5.2,2.4,8.1,2.8
		c7,0.8,14,1.5,21,2.3c1.8,0.2,3.1,2.5,5.4,1.1c4.2-2.7,9.1-3.5,13.9-3.8c3.3-0.3,6.7-0.3,9.5,2.5C297.9,495.9,300,495.8,302,496.3z
		"/>
	<path d="M339.8,499.1c8.1-5.7,14.9-11.8,20.9-18.7c-17.6,6.1-33.6,15.9-51.7,20.5c-0.1-0.2-0.2-0.5-0.3-0.7
		c5.8-2,11.6-4.1,17.3-6.1c-5.6,0.8-11,2.4-17,2.9c1.3-2.7,3.7-1.8,5.4-2.1c10.1-1.9,19.6-4.7,28.4-10.4c10-6.4,20-12.7,29.1-20.4
		c2.5-2.1,4.4-4.9,7-7.1c9.6-8,18.9-16.3,30.4-21.3c3.1-1.3,6.1-3.5,10-2.1c1.4,0.5,2.9-1.2,4.3-1.9c5.4-2.4,10.9-3.3,16.7-3
		c0.4,0,0.9-0.2,1.1,0c2.5,2.6,5.9,2,9,2.7c0.4,0.1,1-0.2,1.1,0.4c0.1,0.7-0.4,1.1-0.9,1.2c-2.6,0.6-3.8,2.2-4.7,4.6
		c-0.6,1.6-2.6,2.4-4.2,3.4c-1.7,1-3.1,2.2-4.1,3.9c-0.2,0.3-0.4,0.6-0.7,0.9c-3.8,4.3-4,4.3-3.7,9.6c0.4,7.7-2.7,14.5-5,21.5
		c-2.8,8.4-6.3,16.4-10.1,24.3c-4.6,9.4-9.3,18.7-15.9,26.9c-2.2,2.8-4.9,5-7.1,7.7c-1.3,1.6-2.4,0.9-3.5,0.4
		c-1.3-0.5-1.7-1.8-1.3-3c1.3-4.4,0.7-9.1,1.7-13.5c0.7-2.9,0.9-5.9,0.8-8.6c-0.2-3.7,1.3-7.6-0.7-11.2c-0.6-1.1,0.5-2.1,0.5-3.2
		c0-4.4,1.1-8.7,0.6-13.1c-0.1-0.8,0.1-1.6,0.5-2.4c0.5-1,0.8-2.3-0.5-3c-2.3-1.4-2.7-4.6-5.7-5.3c-1.8-0.4-3.2,0.3-4.8,0.7
		c-1.1,0.3-2.1,0.8-3-0.4c-0.6-0.7-1.1,0.1-1.6,0.5c-10.8,8.9-22.5,16.4-34.2,24C342.9,498.5,341.9,499.2,339.8,499.1z"/>
	<path d="M170,548.2c-0.9,0.7-1.6-1.3-2.5-0.1c0.5,0.9,1.9,0.5,2.4,1.6c-0.6,0.6-1.3,0.5-1.9,0.2c-1.2-0.8-2-0.2-2.6,0.7
		c-2.1,3-5.5,3.7-8.6,4.5c-4.6,1.1-9.1,2.5-13.6,4.1c-1.1,0.4-2.1,0.7-3.1,0.3c-1.6-0.6-2.8-0.4-4.1,0.9c-1.4,1.5-3.5-0.3-5.2,0.8
		c-3.5,2.1-7.5,0.8-11.3,1.4c-2,0.3-4.3-1.1-5.9,0.9l-1.7-1.2c-0.1-0.8-0.8-1.4-1.3-1c-2.1,1.8-4.7,0.4-6.9,1.5
		c-0.3,0.2-1.2,0.2-1.2,0.3c0.6,1.7,1.4,3.3,2,5c0.2,0.6,1.5-0.1,1.1,1c-0.3,0.6-0.6,1.1-1.6,1.1c-3.5-0.1-7.1,0-10.6,0
		c-1.5,0-0.2-0.5-0.2-0.8c-0.3-1.4-1.5-1.4-2.5-0.9c-10,5.1-20.9,7.5-31.4,11.1c-8.3,2.9-16.9,4.6-25.1,7.8
		c-0.2,0.1-0.5-0.1-0.9-0.3c12.1-5.3,25.8-6.9,37.1-14.5c-11.5,1.6-22.7,4.3-34.8,5.5c1.8-1.9,3.7-1.4,5.3-1.7
		c11.9-1.8,23.8-4,35.3-7.9c4.6-1.6,8.3-4.6,12.5-6.9c3.1-1.7,6.1-3.4,9.2-5.1c-2.5-1.7-3.4-4.8-2.2-7.7c1.6-3.9-0.6-8.1-5.5-9.2
		c-4.5-1.1-9.2-1.5-13.8-2.3c-2-0.3-4.2-0.4-6-1.3c-4.2-2-8.8-2-13.3-2.5c-5.6-0.7-10.8-2.7-16.4-3.6c-1.3-0.2-1.8-1.6-1.9-2.7
		c0-1,1.1-0.8,1.9-1.1c4.4-1.3,9-1.6,13.6-1.7c10,0,20.1-0.2,30,0.7c5.6,0.5,11.1,0.1,16.7,1c-3-2-4-5.5-6.3-7.8
		c-1.2-1.2-3.3-2.3-3.1-4c0.3-2.6-2.3-3.3-2.5-4.8c-0.7-5.8-6.1-7.3-9.3-10.8c-0.5-0.6-1.6-0.9-1.3-1.9c0.4-1.1,1.5-0.9,2.4-0.9
		c6.9,0.2,13.4,1.9,19.8,4.4c9.5,3.7,18.6,8.2,27.4,13.3c4.4,2.6,9,4.8,12.6,8.5c1.1,1.2,2.2,2.5,3.1,3.8c1.9,2.9,2.5,6,0.3,9.1
		c-0.8,1.2-1.3,2.7-2,4c1.6,1,2.9-0.2,4.4-0.2c4.2,0,8.4,0.4,12.5,1.2c2,0.4,3.8,1.4,5,3.4c0.8,1.3,1.7,2.5,3.5,2.8
		C168.4,546.5,169.6,547,170,548.2z"/>
	<path d="M732.9,394.4c7.4,3.8,14.3,1.9,21.2-1.3C748.8,397.7,737.4,399.2,732.9,394.4z"/>
	<path d="M603.2,398.7c-0.5,2-2.3,2.8-3.8,4c0.2-2.1,2.1-3,3.3-4.4C602.9,398.5,603,398.6,603.2,398.7z"/>
	<path d="M540.5,396.5c0.2,0.3,0.3,0.6,0.5,0.9c-0.9-0.1-1.1,1-2,1.2C538.8,397.3,539.9,397,540.5,396.5z"/>
	<path d="M597,404.8c0-1.1,0.6-1.6,1.9-1.7c-0.1,1.2-0.9,1.6-1.6,2.2C597.2,405.1,597.1,404.9,597,404.8z"/>
	<path d="M700,347.2c-0.4,0.1-0.6,0.3-0.8,0.3s-0.2-0.3-0.4-0.5c0.1-0.1,0.3-0.2,0.4-0.2C699.5,346.8,699.7,347,700,347.2z"/>
	<path d="M597.3,405.2c-0.3,0.2-0.5,0.3-0.8,0.5c-0.2-0.5-0.1-0.8,0.4-1C597.1,404.9,597.2,405.1,597.3,405.2z"/>
	<path d="M516.1,411.9c0.2,0.1,0.4,0.3,0.6,0.4c-0.1,0.1-0.1,0.1-0.2,0.2C516.3,412.3,516.2,412.1,516.1,411.9L516.1,411.9z"/>
	<path class="st0" d="M520.3,391.6c-0.2-0.1-0.3-0.2-0.4-0.3c0.2-0.1,0.3-0.3,0.5-0.4c0.1,0,0.3,0.2,0.4,0.3
		C520.7,391.3,520.5,391.5,520.3,391.6z"/>
	<path class="st0" d="M530.2,400.4c0.3-0.2,0.4-0.8,0.7-0.5c0.3,0.2,0.3,0.9-0.2,1.1C530.5,400.9,530.4,400.6,530.2,400.4z"/>
	<path class="st0" d="M632.7,349.4c0.2-0.7,0.8-0.5,1.3-0.4c-0.3,0.3-0.5,0.5-0.8,0.8C633,349.7,632.9,349.6,632.7,349.4z"/>
	<path class="st0" d="M684.1,406.5c-0.5-0.2-0.6-0.5-0.4-1c0.3,0.2,0.5,0.3,0.8,0.5C684.4,406.2,684.2,406.4,684.1,406.5z"/>
	<path class="st0" d="M758.5,387c-0.2,0.1-0.3,0.3-0.5,0.4c-0.1-0.1-0.3-0.3-0.3-0.3c0.1-0.2,0.3-0.4,0.4-0.6
		C758.3,386.7,758.4,386.8,758.5,387z"/>
</g>
</svg>
