<?xml version="1.0" encoding="utf-8"?>

<!DOCTYPE svg PUBLIC "-//W3C//DTD SVG 1.1//EN" "http://www.w3.org/Graphics/SVG/1.1/DTD/svg11.dtd">
<svg version="1.1" id="Layer_1" xmlns="http://www.w3.org/2000/svg" xmlns:xlink="http://www.w3.org/1999/xlink" x="0px" y="0px"
	 viewBox="0 0 2663.444 937.578" enable-background="new 0 0 2663.444 937.578" xml:space="preserve">
<g>
	<path fill="#030000" d="M1212.293,812.279c-1.283-438.733,8.007-434.039-20.956-453.246c-7.712-5.353-13.858-13.006-22.74-16.555
		c-36.163-12.094-73.872-25.814-101.213-53.57c-32.991-31.603-61.402-68.975-78.234-111.72
		c-11.717-28.581,1.983-50.746-47.305-75.914c-36.203-13.065-75.577,1.626-112.196-9.041c-11.162-4.203-19.945-12.669-30.076-18.696
		c17.516,59.504,49.304,84.537,98.417,100.737c10.667,1.943,19.866-4.996,28.47-10.191c0.634-5.75,1.884-17.268,2.498-23.018
		c4.96,24.802,2.921,24.703-13.383,40.386c13.933,28.583,9.271,43.245,61.005,114.853c7.693,11.836,19.053,20.58,27.221,32.039
		c14.279,17.033-10.605-4.21,53.967,41.258c22.384,15.127,46.929,27.301,73.04,34.497c13.105,3.073,26.607,0.278,39.414-2.974
		c-3.192,10.666-11.519,18.974-23.018,20.381c-0.01,1.01-2.244,361.854,1.527,385.44c3.212,18.24,17.011,32.852,31.92,42.904
		c18.518,13.997,43.3,5.908,64.554,7.118C1229.859,845.964,1207.158,835.615,1212.293,812.279z"/>
	<path fill="#030000" d="M1830.809,92.431c14.433-2.3,25.675-12.134,38.245-18.756c-5.69,19.013-13.402,38.82-28.609,52.301
		c-1.137,1.074-43.919,50.107-81.446,38.324c-8.188-4.798-11.4-14.037-14.929-22.245c-2.32,6.681-5.631,13.303-4.421,20.659
		c1.725,7.455,6.364,14.077,6.424,21.948c-30.726,136.977-173.543,224.896-232.283,221.181c-6.067-4.025-8.208-11.459-11.321-17.586
		c-1.844,2.042-3.688,4.084-5.512,6.146c6.225,12.371,13.442,26.944,29.68,27.063c1.626,125.619,0.734,251.297,0.575,376.915
		c1.084,32.164-33.208,69.185-81.01,65.248c-9.596,0.753-16.357-6.622-21.928-13.105c10.964-4.441,21.571-9.695,32.317-14.612
		c5.063-129.59,4.84-413.351,6.126-445.969c-0.059-15.465,11.975-26.805,20.639-38.106c21.027-16.103,93.402-24.012,153.672-100.181
		c68.407-87.026,27.535-143.15,117.252-160.75C1779.638,92.491,1805.67,100.203,1830.809,92.431z"/>
	<path fill="#030000" d="M2558.112,121.457c22.186-8.307,36.956-27.876,53.253-44.093c0.139,23.97,2.3,49.169-5.928,72.187
		c-12.708,17.05-19.965,38.641-37.709,51.508c-15.405,10.647-31.503,22.681-51.013,23.613
		c-64.621,5.109-323.147-35.264-399.635-40.287c6.316-17.609,26.198-28.931,38.007-69.788c52.48,0.575,105.257-3.172,157.559,2.815
		c32.931,1.983,65.981-0.139,98.952,1.685C2460.23,123.856,2509.339,123.043,2558.112,121.457z"/>
	<path fill="#030000" d="M54.942,81.765c10.052,12.114,13.601,29.7,28.312,37.67c21.234,16.396,50.12,12.689,75.339,13.541
		c28.798-1.866,278.983-8.925,310.24-12.471c16.257-2.062,32.713-1.983,49.09-2.478c9.279,26.091,24.128,50.002,43.598,69.709
		c-57.021,9.026-304.316,35.349-346.125,39.176c-26.012,5.274-52.936,6.265-79.245,3.172c-35.468-13.179-46.136-29.031-54.859-37.65
		C57.485,168.152,45.749,106.379,54.942,81.765z"/>
	<path fill="#030000" d="M2127.25,108.054c6.602-8.446,11.916-19.212,23.494-21.848c-1.646,21.313-14.592,39.018-19.985,59.26
		c-8.525,11.995-19.707,22.939-33.467,28.669c-25.596,3.549-51.826,2.419-77.183-2.458c-42.598-5.211-161.996-16.961-178.118-22.463
		c10.052-13.065,20.936-25.516,30.175-39.176c3.787-5.512,10.528-10.448,17.487-8.902c46.215,6.86,93.064,0.654,139.477,4.917
		C2061.744,108.907,2094.537,108.748,2127.25,108.054z"/>
	<path fill="#030000" d="M528.271,92.709c14.116,1.705,15.564,21.571,30.81,20.48c80.177,4.738,160.235-7.95,240.471-4.738
		c6.364,16.832,15.167,32.654,27.023,46.254c-1.001,0.084-196.085,25.205-207.699,27.142c-25.715,6.959-53.174-7.058-67.885-28.173
		C543.517,133.313,537.173,112.515,528.271,92.709z"/>
	<path fill="#030000" d="M1842.646,160.574c25.59,1.691,194.871,29.853,226.058,28.887c11.618-1.031,21.947-7.078,33.07-10.171
		c-5.69,14.414-18.379,24.089-25.913,37.352c-41.732,45.091-54.768,34.142-87.433,27.301
		c-230.681-56.888-213.947-42.901-226.672-57.991C1819.094,170.136,1822.193,157.344,1842.646,160.574z"/>
	<path fill="#030000" d="M741.263,181.233c34.696-3.846,68.955-13.64,104.147-10.984c6.424,0.892,12.015,4.5,17.764,7.296
		c11.757,6.225,24.644,9.794,37.432,13.323c0.079,1.209,0.258,3.608,0.337,4.818c-22.265,8.961-46.116,12.669-69.491,17.526
		c-147.73,36.823-183.778,48.101-197.33,39.236c-14.313-8.496-49.621-48.6-57.04-58.824
		C647.293,198.022,578.863,201.763,741.263,181.233z"/>
	<path fill="#030000" d="M1758.761,199.413c247.398,60.089,234.393,61.07,277.923,56.663c-6.483,14.909-20.48,23.692-32.614,33.486
		c-11.598,9.219-26.409,13.085-40.644,16.099c-30.698,5.554-52.433-4.631-222.469-61.243
		C1745.755,228.994,1752.08,214.104,1758.761,199.413z"/>
	<path fill="#030000" d="M2105.382,200.365c17.08-0.853,324.089,43.181,325.089,43.34c26.527,2.121,53.412,10.409,80.038,4.897
		c12.907-3.509,23.474-13.204,37.412-13.759c-9.734,12.61-18.517,26.091-30.374,36.877c-99.383,99.233-73.967,71.972-359.111,13.402
		c-33.407-10.27-67.349-18.855-101.708-25.338C2060.692,246.839,2096.926,207.719,2105.382,200.365z"/>
	<path fill="#030000" d="M573.138,209.326c34.328,42.069,38.172,42.916,44.311,54.581c-75.513,22.626-209.306,45.524-262.895,59.042
		c-39.91,6.364-78.65,22.047-119.849,17.407c-23.87-0.777-43.361-26.935-83.647-58.963c-9.774-13.442-21.967-25.08-30.909-39.117
		c1.289-0.634,3.866-1.923,5.155-2.577c9.477,6.8,19.846,13.898,32.158,13.105C226.372,255.15,522.778,209.173,573.138,209.326z"/>
	<path fill="#030000" d="M682.578,260.696c76.291-15.405,151.214-36.956,227.604-51.766c5.948,13.145,11.797,26.349,17.506,39.613
		c-82.232,21.869-186.819,76.058-218.266,65.109c-17.427-8.248-35.984-15.484-49.962-29.224
		c-7.137-7.554-19.251-11.995-21.174-23.375C653.077,260.18,667.946,264.74,682.578,260.696z"/>
	<path fill="#030000" d="M1732.254,254.788c95.927,34.057,169.446,66.835,219.138,67.052c-8.228,18.042-26.448,27.638-42.765,37.115
		c-17.407,10.746-39.434,8.069-58.606,5.234c-21.749-6.364-41.06-18.538-62.135-26.527c-27.677-11.46-56.544-21.155-81.228-38.522
		C1715.719,284.646,1724.7,270.113,1732.254,254.788z"/>
	<path fill="#030000" d="M941.032,264.602c3.906,12.59,10.766,24.188,20.361,33.248c0.218,2.835,0.674,8.505,0.892,11.341
		c-36.599,8.664-68.955,29.006-102.521,45.204c-12.332,9.06-29.581,9.021-40.029,20.758c-30.489,0.423-42.777,6.545-76.529-27.757
		c-6.88-7.197-18.815-11.301-18.954-22.82C765.967,336.976,867.872,276.463,941.032,264.602z"/>
	<path fill="#030000" d="M2040.748,269.637c83.09,22.875,236.749,61.964,340.891,85.233c18.696,5.234,37.947,2.458,55.652-4.62
		c-0.635,4.758-2.419,8.843-5.373,12.233c-16.023,11.222-77.614,65.389-115.309,63.265c-30.156,5.274-57.318-8.902-85.034-17.625
		c-55.502-17.295-216.13-73.086-254.132-83.528c0.02-2.696,0.059-5.353,0.139-8.01
		C2000.263,303.362,2023.262,289.602,2040.748,269.637z"/>
	<path fill="#030000" d="M652.065,293.825c12.094,13.422,29.125,20.976,41.318,34.24c-50.108,20.468-279.325,94.789-299.752,104.206
		c-14.929,6.582-31.88,5.928-47.821,4.917c-36.99-7.126-84.593-53.719-109.976-80.752c48.622,12.69,7.972,15.177,187.04-26.349
		C661.333,276.837,624.235,268.019,652.065,293.825z"/>
	<path fill="#030000" d="M1690.52,319.044c14.415-18.473,53.145,32.297,174.906,63.622c-21.531,24.584-55.156,38.919-88.008,32.455
		c-41.635-15.048-76.925-42.706-116.855-61.283C1666.133,339.088,1679.219,329.255,1690.52,319.044z"/>
	<path fill="#030000" d="M983.083,323.525c9.754,8.823,19.172,18.438,25.259,30.255c-11.853,9.117-85.994,53.376-87.314,54.205
		c-12.153,7.177-25.001,15.127-39.851,13.878c-26.052,1.864-55.612-8.684-67.488-33.526
		C881.031,374.398,968.729,308.281,983.083,323.525z"/>
	<path fill="#030000" d="M1958.272,339.743c12.633-0.853,55.047,17.825,72.108,21.948c47.126,21.65,98.476,32.099,145.722,53.431
		c20.599,9.18,43.221,12.332,63.919,21.194c24.763,9.794,51.806,6.919,77.778,5.67c-4.461,4.897-8.942,9.913-14.513,13.581
		c-79.202,44.021-108.544,65.123-160.512,42.844c-1-0.456-215.721-93.619-252.149-114.734c10.468-8.684,23.216-13.759,35.092-20.123
		C1937.494,356.952,1946.515,346.325,1958.272,339.743z"/>
	<path fill="#030000" d="M765.293,378.483c6.166,2.835,11.836,6.701,17.011,11.083c-14.671,9.417-32.099,13.046-46.691,22.622
		c-25.256,11.046-168.008,86.455-221.478,99.726c-17.15,2.399-35.172,1.408-51.211-5.452
		c-30.027-10.785-82.677-37.159-101.094-59.459c49.449,3.557,54.161,4.978,96.256-10.329
		C797.468,315.541,687.901,337.425,765.293,378.483z"/>
	<path fill="#030000" d="M1644.483,360.421c94.579,56.067,104.46,66.108,135.571,71.414c-3.787,5.512-6.543,11.915-11.38,16.614
		c-54.548,38.069-59.883,26.226-151.154-51.528C1603.285,387.555,1626.995,375.15,1644.483,360.421z"/>
	<path fill="#030000" d="M1062.843,388.436c-8.133,19.849-48.045,41.22-63.642,58.091c-14.533,14.473-34.953,26.904-56.187,23.117
		c-18.557-0.615-30.334-16.832-39.613-30.79C1060.303,349.525,1002.426,357.193,1062.843,388.436z"/>
	<path fill="#030000" d="M1608.935,407.231c13.956,8.246,62.401,58.033,81.684,69.649c9.08,6.483,21.373,16.198,16.198,28.887
		c-14.136,12.966-31.464,22.166-48.217,31.306c-10.964-12.391-23.573-23.256-33.804-36.302
		c-2.998-4.043-56.712-65.739-74.526-83.904C1596.948,386.796,1594.751,398.826,1608.935,407.231z"/>
	<path fill="#030000" d="M1870.937,396.009c27.018,13.311,215.788,102.62,215.788,102.62c47.282,21.524,46.961,19.935,88.028,23.553
		c0.218,0.635,0.674,1.903,0.892,2.538c-15.207,3.331-28.788,11.182-41.932,19.192c-12.53,7.792-27.063,11.162-40.941,15.662
		c-35.447,12.078-70.118,10.041-117.252-20.619c-1.078-0.543-168.767-97.411-179.248-106.605
		C1813.859,423.701,1834.765,424.381,1870.937,396.009z"/>
	<path fill="#030000" d="M807.978,400.094c14.096,15.246,33.169,25.12,53.075,30.473c4.778,1.447,8.426,4.996,12.272,8.03
		c-11.122,10.964-25.596,17.189-38.681,25.358c-17.727,9.24-125.836,81.154-157.836,98.199
		c-27.737,11.122-59.34,19.172-88.623,9.041c-15.286-5.373-31.444-8.763-45.402-17.328c-15.266-9.14-31.821-16.614-44.906-28.946
		c0.674-0.872,2.022-2.577,2.696-3.45c16.416,7.217,35.33,10.012,52.143,2.042C617.406,494.495,806.976,400.66,807.978,400.094z"/>
	<path fill="#030000" d="M1086.734,402.334c10.746,4.818,22.701,7.732,31.742,15.663c-12.601,9.795-83.906,101.797-100.836,116.439
		c-7.366,8.593-44.076-25.343-52.658-36.004C1068.351,409.558,1073.419,395.034,1086.734,402.334z"/>
	<path fill="#030000" d="M1547.732,434.333c7.95,6.88,15.306,14.473,21.353,23.098c10.686,14.949,25.873,26.012,36.024,41.397
		c12.272,17.883,33.724,29.184,39.117,51.489c-12.107,9.158-48.39,35.513-54.839,21.789
		C1546.454,496.31,1544.898,518.552,1547.732,434.333z"/>
	<path fill="#030000" d="M1103.844,461.852c7.653-9.635,16.317-19.509,29.125-22.047c-4.263,21.789-4.897,44.034-7.554,65.981
		c-12.272,24.545-26.983,47.88-40.108,72.009c-19.251-2.379-34.042-15.702-50.953-23.752c5.353-21.075,23.692-35.073,35.945-52.103
		C1080.231,487.547,1093.415,475.849,1103.844,461.852z"/>
	<path fill="#030000" d="M1780.907,445.476c140.941,82.992,154.849,102.473,189.518,107.795
		c-33.251,34.251-53.463,35.533-72.802,41.536c-15.068,5.353-31.008,1.388-45.104-4.619c-11.043-4.679-18.339-14.751-27.499-22.007
		c-11.836-10.845-25.893-18.894-37.868-29.541c-19.39-19.588-44.351-33.05-61.164-55.335
		C1758.442,470.131,1755.59,474.346,1780.907,445.476z"/>
	<path fill="#030000" d="M897.83,450.392c9.774,18.656,29.6,31.048,50.557,32.614c-4.877,13.839-19.291,18.874-28.807,28.589
		c-17.863,17.962-38.978,32.237-56.366,50.715c-17.487,12.709-32.971,30.195-55.771,32.812
		c-36.476,11.598-72.811-18.782-99.388-41.516C754.619,545.012,855.679,462.996,897.83,450.392z"/>
	<path fill="#030000" d="M1665.578,548.393c18.359-14.394,38.185-27.003,54.78-43.578c12.689,9.437,23.553,21.036,35.588,31.286
		c8.961,8.367,20.084,14.037,28.391,23.177c15.345,16.495,33.09,30.552,51.35,43.716c15.266,7.752,33.01,7.911,49.625,10.468
		c-20.242,19.112-43.915,34.953-69.59,45.779C1765.816,681.392,1734.658,612.731,1665.578,548.393z"/>
	<path fill="#030000" d="M947.673,511.893c15.038-8.123,19.095,17.304,56.326,32.118c-1.963,11.717-11.38,19.093-18.934,27.201
		c-15.126,15.515,3.373,4.399-46.076,51.072c-11.38,9.854-16.773,25.199-29.838,33.368c-15.643,12.372-38.919,16.773-56.663,6.463
		c-23.355-13.442-47.92-25.278-68.955-42.349c0.654-0.714,1.983-2.141,2.657-2.855c12.312,1.626,25.199,4.441,37.352,0.813
		C849.986,604.657,937.274,519.381,947.673,511.893z"/>
	<path fill="#030000" d="M1100.414,585.864c4.758-18.26,11.698-36.222,23.316-51.29c13.046,18.438,7.177,42.289,8.049,63.444
		C1121.509,593.497,1110.843,589.969,1100.414,585.864z"/>
	<path fill="#030000" d="M1548.723,534.455c10.587,12.768,19.132,27.875,24.148,43.677c-4.818,9.457-16.357,11.618-25.08,15.861
		C1546.205,574.147,1545.035,554.162,1548.723,534.455z"/>
	<path fill="#030000" d="M1600.449,593.161c16.515-15.227,37.095-24.882,55.573-37.432
		c62.698,67.402,82.974,107.087,126.709,122.882c0.079,1.11,0.278,3.291,0.377,4.381c-45.807,22.169-74.654,44.15-120.147,7.395
		c-13.482-13.978-20.401-32.436-30.671-48.594C1621.366,625.794,1612.722,608.189,1600.449,593.161z"/>
	<path fill="#030000" d="M1019.92,558.901c19.073,6.86,33.605,22.424,52.857,29.263c-4.619,22.185-20.361,39.712-31.98,58.527
		c-9.378,14.949-14.215,33.565-29.382,44.054c-16.059,11.162-34.835,21.055-54.74,21.452c-25.933-6.126-55.474-11.836-72.702-34.2
		c11.459,2.002,24.723,5.274,34.914-2.478C947.74,649.19,1010.271,574.135,1019.92,558.901z"/>
	<path fill="#030000" d="M1548.049,604.422c5.67-12.134,21.63-14.295,33.486-12.708c10.865,28.807,32.158,52.182,44.351,80.415
		c7.336,16.654,17.546,32.138,32.436,43.023c-0.02,1.408-0.079,4.223-0.099,5.631c-37.515,17.111-65.618,28.548-110.709,18.954
		C1547.057,694.65,1543.231,649.348,1548.049,604.422z"/>
	<path fill="#030000" d="M1094.189,596.709c14.473-1.328,27.459,7.098,38.185,15.92c-4.124,41.754,2.558,83.587,0.912,125.42
		c-47.022,13.746-105.86-1.614-128.711-24.227c18.197-5.289,22.173,3.39,42.111-31.603
		C1081.532,617.513,1083.943,604.344,1094.189,596.709z"/>
</g>
</svg>
